<svg width="222" height="182" viewBox="0 0 222 182" fill="none" xmlns="http://www.w3.org/2000/svg">
<path d="M130.214 127.79L85.2972 0.943359H47.025L2.1084 127.79H33.9879L41.7537 105.347H90.5685L98.3343 127.79H130.214ZM81.8033 80.0319H50.5189L66.1611 34.8368L81.8033 80.0319Z" fill="black"/>
<path d="M142.136 127.792H170.891V99.0361H142.136V127.792Z" fill="#FFCC00"/>
<path d="M171.809 44.8921V0.944336H141.276V44.8921L147.505 88.8399H164.379L171.809 44.8921Z" fill="#FFCC00"/>
<path d="M13.6038 172.349L14.6965 176.415H19.8529L13.422 156.179H7.74841L0.679199 176.415H5.62573L6.90021 172.349H13.6038ZM12.6019 168.619H8.02106L10.4792 160.699L12.6019 168.619ZM25.7385 166.372C25.9203 165.189 26.7707 164.613 28.3178 164.613C29.7438 164.613 30.592 165.128 30.592 165.979C30.592 166.554 30.2588 166.827 29.2872 166.978L26.9525 167.374C22.8563 168.041 21.1274 169.467 21.1274 172.198C21.1274 174.959 23.2805 176.809 26.4959 176.809C28.2573 176.809 29.2569 176.445 30.7132 175.262C30.8647 175.807 30.8647 175.898 31.0464 176.415H35.4455C34.9608 175.686 34.9002 175.474 34.9002 173.896V167.162C34.9002 164.977 34.5064 163.823 33.444 162.884C32.2906 161.852 30.592 161.337 28.3784 161.337C24.252 161.337 22.1596 162.975 21.8848 166.372H25.7385ZM30.7132 171.683C30.0164 172.925 28.9843 173.533 27.5583 173.533C26.2232 173.533 25.375 172.955 25.375 171.986C25.375 171.105 26.0415 170.59 27.5886 170.226L29.1357 169.891C29.865 169.739 30.2588 169.618 30.7132 169.437V171.683ZM42.8782 156.179H38.5701V176.415H42.8782V156.179ZM54.5587 161.943H51.9188V157.302H47.6106V161.943H45.5485V164.977H47.6106V171.652C47.6106 173.926 47.7945 174.716 48.4609 175.443C49.0971 176.142 50.0384 176.415 51.9188 176.415H54.5587V173.169H53.0115C52.0097 173.169 51.9188 172.985 51.9188 170.681V164.977H54.5587V161.943ZM64.2354 161.368C59.6848 161.368 56.4693 164.583 56.4693 169.073C56.4693 173.624 59.6848 176.809 64.2354 176.809C68.7556 176.809 72.0338 173.624 72.0338 169.194C72.0338 164.553 68.8789 161.368 64.2354 161.368ZM64.2354 164.795C66.4511 164.795 67.6953 166.342 67.6953 169.164C67.6953 171.804 66.4208 173.381 64.2354 173.381C62.052 173.381 60.8078 171.804 60.8078 169.073C60.8078 166.373 62.052 164.795 64.2354 164.795ZM93.9967 156.179V169.558C93.9967 170.923 93.7846 171.529 93.1788 172.107C92.5101 172.682 91.5407 173.016 90.4177 173.016C89.325 173.016 88.3534 172.682 87.687 172.107C87.0811 171.529 86.8669 170.923 86.8669 169.558V156.179H82.3163V169.861C82.3163 172.41 82.9849 174.017 84.5018 175.14C86.0489 176.263 88.1111 176.869 90.4177 176.869C92.7525 176.869 94.8168 176.263 96.364 175.14C97.8808 174.017 98.5472 172.41 98.5472 169.861V156.179H93.9967ZM102.674 161.761V176.415H106.982V168.192C106.982 166.918 107.133 166.312 107.618 165.767C108.072 165.25 108.741 164.977 109.468 164.977C110.228 164.977 110.864 165.28 111.227 165.827C111.593 166.373 111.684 166.948 111.684 168.435V176.415H115.992V166.918C115.992 163.46 114.049 161.337 110.864 161.337C109.347 161.337 108.468 161.731 106.861 163.187V161.761H102.674ZM124.394 161.761H120.086V176.415H124.394V161.761ZM124.394 156.179H120.086V159.727H124.394V156.179ZM136.468 176.415L141.443 161.761H136.832L135.345 167.374C135.133 168.253 134.77 169.921 134.437 171.59C133.95 169.83 133.586 168.404 133.283 167.374L131.645 161.761H127.125L132.372 176.415H136.468ZM157.795 170.347C157.795 168.404 157.583 167.1 157.129 165.888C156.066 162.975 153.701 161.368 150.544 161.368C146.147 161.368 143.051 164.553 143.051 169.103C143.051 173.714 146.054 176.809 150.577 176.809C154.065 176.809 156.796 174.989 157.613 172.137H153.245C152.639 173.046 151.849 173.442 150.698 173.442C148.846 173.442 147.664 172.349 147.389 170.347H157.795ZM147.42 167.314C147.755 165.615 148.846 164.644 150.514 164.644C152.184 164.644 153.184 165.615 153.366 167.314H147.42ZM160.89 161.761V176.415H165.198V172.288C165.198 169.437 165.349 168.071 165.775 167.1C166.26 166.009 167.474 165.34 168.961 165.34C169.264 165.34 169.536 165.371 170.051 165.431V161.368C166.927 161.337 165.836 162.004 164.986 164.371L165.107 161.761H160.89ZM185.068 166.16C184.705 163.066 182.398 161.368 178.637 161.368C174.753 161.368 172.388 163.157 172.388 166.1C172.388 168.435 173.632 169.618 176.848 170.317L179.518 170.923C180.669 171.196 181.156 171.59 181.156 172.258C181.156 173.106 180.245 173.684 178.91 173.684C177.181 173.684 176.27 173.015 176.028 171.652H171.994C172.237 174.898 174.753 176.809 178.819 176.809C182.885 176.809 185.401 174.868 185.401 171.773C185.401 170.59 185.008 169.497 184.311 168.831C183.673 168.162 182.764 167.768 180.974 167.405L178.274 166.827C176.908 166.524 176.484 166.251 176.484 165.706C176.484 164.977 177.302 164.492 178.546 164.492C179.972 164.492 180.851 165.068 181.035 166.16H185.068ZM192.471 161.761H188.162V176.415H192.471V161.761ZM192.471 156.179H188.162V159.727H192.471V156.179ZM204.454 161.943H201.814V157.302H197.506V161.943H195.444V164.977H197.506V171.652C197.506 173.926 197.688 174.716 198.356 175.443C198.992 176.142 199.934 176.415 201.814 176.415H204.454V173.169H202.907C201.905 173.169 201.814 172.985 201.814 170.681V164.977H204.454V161.943ZM216.861 161.761L214.951 168.374C214.618 169.679 214.375 170.681 214.191 171.652L214.009 171.074C213.676 169.861 213.676 169.83 213.252 168.465L211.097 161.761H206.486L211.309 174.078C211.826 175.352 211.856 175.443 211.856 175.958C211.856 177.233 211.157 177.81 209.641 177.81H208.368V181.056H210.885C214.161 181.056 214.86 180.448 216.225 176.536L221.321 161.761H216.861Z" fill="black"/>
</svg>
